<svg width="26" height="25" viewBox="0 0 26 25" fill="none" xmlns="http://www.w3.org/2000/svg">
<path fill-rule="evenodd" clip-rule="evenodd" d="M11.489 1.1618C10.2264 2.44823 10.4387 2.71877 12.7108 2.71877C14.9978 2.71877 15.1907 2.44846 13.8171 1.16914C13.2225 0.615395 12.6761 0.162354 12.603 0.162354C12.5298 0.162354 12.0285 0.61206 11.489 1.1618ZM8.05765 4.59296L6.97818 5.68888L8.01853 6.34866C10.599 7.98521 13.6913 8.12481 16.5096 6.7319C17.4157 6.28419 18.1571 5.84449 18.1571 5.7549C18.1571 5.66532 17.6751 5.11713 17.086 4.53716L16.0152 3.48214L15.0298 3.92918C13.7231 4.52204 11.7053 4.52516 10.408 3.93651C9.87493 3.69465 9.37098 3.49681 9.28807 3.49681C9.20515 3.49681 8.65141 3.99009 8.05765 4.59296ZM4.69986 7.95097C4.06053 8.6003 3.69041 9.13782 3.81912 9.23052C5.45811 10.41 7.10578 11.3361 8.23327 11.7114C11.1949 12.6968 14.5278 12.6601 17.379 11.6107C19.0349 11.0011 21.3804 9.5524 21.3804 9.13937C21.3804 9.00288 20.9484 8.42269 20.4207 7.85005L19.4613 6.80903L18.4436 7.48304C16.5956 8.70723 15.1603 9.1327 12.8219 9.14982C10.4258 9.16738 9.20026 8.83238 7.15513 7.60086C6.452 7.1776 5.86025 6.83126 5.8398 6.83126C5.81957 6.83126 5.30651 7.33521 4.69986 7.95097ZM1.4292 11.2625C0.848562 11.8643 0.373291 12.4056 0.373291 12.4652C0.373291 12.7759 3.38386 14.7875 4.93038 15.5102C7.67641 16.7933 9.36254 17.149 12.7108 17.1514C15.036 17.1532 15.939 17.0571 17.3321 16.659C19.6833 15.9872 21.512 15.1127 23.4615 13.7274L25.0983 12.5643L23.9352 11.3868L22.7722 10.2091L21.7429 10.9993C20.4449 11.9959 17.9999 13.1609 16.2675 13.6084C14.4807 14.0701 11.0153 14.0673 9.1109 13.6027C7.27717 13.1552 4.6534 11.8921 3.49101 10.8971C3.02129 10.4947 2.60271 10.1662 2.56092 10.1668C2.51912 10.1675 2.00984 10.6606 1.4292 11.2625ZM9.04043 21.1399L12.7059 24.8373L16.3127 21.2354C18.2964 19.2546 19.8816 17.5958 19.8354 17.5495C19.7892 17.5033 19.5675 17.56 19.3432 17.6754C17.201 18.7766 10.8221 19.0863 7.82024 18.2347C6.9644 17.9919 6.06409 17.7143 5.81957 17.6178C5.57504 17.5213 7.02442 19.1063 9.04043 21.1399Z" fill="white"/>
</svg>
